<svg width="24" height="24" viewBox="0 0 24 24" fill="none" xmlns="http://www.w3.org/2000/svg">
<path d="M17.2024 14.402C18.589 15.0814 19.6874 16.2844 20.0469 17.8596M15.7773 11.2917C16.8331 10.7597 17.5587 9.65489 17.5587 8.37828C17.5587 7.10166 16.8331 5.99688 15.7773 5.46484" stroke="#DDE3EB" stroke-width="2" stroke-linecap="round" stroke-linejoin="round"/>
<path d="M10.2883 11.6006C12.3872 11.6006 14.0886 9.89914 14.0886 7.80029C14.0886 5.70145 12.3872 4 10.2883 4C8.18948 4 6.48803 5.70145 6.48803 7.80029C6.48803 9.89914 8.18948 11.6006 10.2883 11.6006Z" fill="#DDE3EB"/>
<path d="M10.2883 14.1341C7.89783 14.1341 5.77319 15.4385 4.42678 17.4601C4.13182 17.903 3.98434 18.1244 4.00132 18.4073C4.01454 18.6275 4.15891 18.8971 4.3349 19.0302C4.56093 19.2012 4.87178 19.2012 5.4935 19.2012H15.0832C15.7049 19.2012 16.0157 19.2012 16.2418 19.0302C16.4177 18.8971 16.5621 18.6275 16.5753 18.4073C16.5923 18.1244 16.4448 17.903 16.1499 17.4601C14.8035 15.4385 12.6788 14.1341 10.2883 14.1341Z" fill="#DDE3EB"/>
</svg>
