<svg width="32" height="32" viewBox="0 0 32 32" fill="none" xmlns="http://www.w3.org/2000/svg">
<g clip-path="url(#clip0_1_1378)">
<path d="M0 25.6001C0 28.4023 0 29.9633 1.01622 30.9839C2.03243 32.0044 3.59351 32.0001 6.4 32.0001H25.6C28.4022 32.0001 29.9632 32.0001 30.9838 30.9839C32 29.9677 32 28.4066 32 25.6001V6.4001C32 3.59793 32 2.03685 30.9838 1.02064C29.9676 0.00441969 28.4065 0.00441966 25.6 0.00441966H6.4C3.59351 9.53355e-05 2.03676 9.53674e-05 1.01622 1.01631C0 2.03685 0 3.59361 0 6.4001V25.6001Z" fill="url(#paint0_linear_1_1378)"/>
<path d="M21.492 13.2924V16.5573C21.492 18.1097 22.1579 18.7151 23.6455 18.7151H25.8552V21.3443H23.1093C20.0995 21.3443 18.6595 19.7789 18.6595 16.8946V6.55078H21.4877V10.6632H25.8509V13.2924H21.4877H21.492ZM11.6152 18.9227C10.0714 18.9227 8.96873 17.6946 8.96873 16.0038C8.96873 14.3129 10.0758 13.0848 11.6152 13.0848C13.1547 13.0848 14.292 14.3129 14.292 16.0038C14.292 17.6946 13.1677 18.9227 11.6152 18.9227ZM12.2336 10.4556C11.0271 10.4556 9.92441 10.8967 9.21522 11.6924H8.96873V10.6632H6.14062V25.4524H8.96873V20.3151H9.21522C9.87252 21.0286 10.932 21.5519 12.2336 21.5519C15.1395 21.5519 17.1244 19.2124 17.1244 16.0038C17.1244 12.7951 15.1395 10.4556 12.2336 10.4556Z" fill="white"/>
</g>
<defs>
<linearGradient id="paint0_linear_1_1378" x1="7.61e-08" y1="7.08503" x2="32.1789" y2="9.11353" gradientUnits="userSpaceOnUse">
<stop stop-color="#FF001A"/>
<stop offset="1" stop-color="#FF3737"/>
</linearGradient>
<clipPath id="clip0_1_1378">
<rect width="32" height="32" fill="white"/>
</clipPath>
</defs>
</svg>
