<svg width="24" height="24" viewBox="0 0 24 24" fill="none" xmlns="http://www.w3.org/2000/svg">
<path d="M8.15475 11.0257L8.86015 11.7345V11.7345L8.15475 11.0257ZM10.5089 11.0286L11.216 10.3214V10.3214L10.5089 11.0286ZM11.6509 12.1705L10.9438 12.8776V12.8776L11.6509 12.1705ZM14.0118 12.1666L14.7212 12.8714V12.8714L14.0118 12.1666ZM16.7094 10.8702C17.0987 10.4784 17.0966 9.8452 16.7048 9.45595C16.313 9.0667 15.6798 9.06877 15.2906 9.46057L16 10.1654L16.7094 10.8702ZM6 5.33203C6 4.77975 5.55228 4.33203 5 4.33203C4.44772 4.33203 4 4.77975 4 5.33203H5H6ZM19.5 19.1654C20.0523 19.1654 20.5 18.7176 20.5 18.1654C20.5 17.6131 20.0523 17.1654 19.5 17.1654V18.1654V19.1654ZM15.4344 6.20396C14.8821 6.20396 14.4344 6.65168 14.4344 7.20396C14.4344 7.75625 14.8821 8.20396 15.4344 8.20396V7.20396V6.20396ZM18.9699 7.20396H19.9699C19.9699 6.93875 19.8646 6.68439 19.677 6.49686C19.4895 6.30932 19.2351 6.20396 18.9699 6.20396V7.20396ZM17.9699 10.7395C17.9699 11.2918 18.4176 11.7395 18.9699 11.7395C19.5222 11.7395 19.9699 11.2918 19.9699 10.7395H18.9699H17.9699ZM14.7273 10.0324C14.3368 10.4229 14.3368 11.0561 14.7273 11.4466C15.1178 11.8371 15.751 11.8371 16.1415 11.4466L15.4344 10.7395L14.7273 10.0324ZM5 14.1654L5.70541 14.8742L8.86015 11.7345L8.15475 11.0257L7.44934 10.3169L4.29459 13.4566L5 14.1654ZM10.5089 11.0286L9.80183 11.7357L10.9438 12.8776L11.6509 12.1705L12.358 11.4634L11.216 10.3214L10.5089 11.0286ZM14.0118 12.1666L14.7212 12.8714L16.7094 10.8702L16 10.1654L15.2906 9.46057L13.3023 11.4618L14.0118 12.1666ZM5 5.33203H4V14.1654H5H6V5.33203H5ZM5 14.1654H4V16.4987H5H6V14.1654H5ZM6.66667 18.1654V19.1654H19.5V18.1654V17.1654H6.66667V18.1654ZM5 16.4987H4C4 17.9715 5.19391 19.1654 6.66667 19.1654V18.1654V17.1654C6.29848 17.1654 6 16.8669 6 16.4987H5ZM11.6509 12.1705L10.9438 12.8776C11.9876 13.9214 13.6808 13.9186 14.7212 12.8714L14.0118 12.1666L13.3023 11.4618C13.0422 11.7237 12.6189 11.7243 12.358 11.4634L11.6509 12.1705ZM8.15475 11.0257L8.86015 11.7345C9.12069 11.4752 9.54192 11.4757 9.80183 11.7357L10.5089 11.0286L11.216 10.3214C10.1764 9.28181 8.49146 9.27979 7.44934 10.3169L8.15475 11.0257ZM15.4344 7.20396V8.20396L18.9699 8.20396V7.20396V6.20396L15.4344 6.20396V7.20396ZM18.9699 7.20396H17.9699V10.7395H18.9699H19.9699V7.20396H18.9699ZM18.9699 7.20396L18.2628 6.49686L14.7273 10.0324L15.4344 10.7395L16.1415 11.4466L19.677 7.91107L18.9699 7.20396Z" fill="#DDE3EB"/>
</svg>
