<svg width="24" height="24" viewBox="0 0 24 24" fill="none" xmlns="http://www.w3.org/2000/svg">
<path d="M11.4567 19.8006C11.6289 19.905 11.715 19.9572 11.8365 19.9842C11.9308 20.0053 12.0684 20.0053 12.1627 19.9842C12.2842 19.9572 12.3703 19.905 12.5424 19.8006C14.0576 18.8819 18.2218 15.9961 18.2218 12.0284V8.16264C18.2218 7.51636 18.2218 7.19322 18.1201 6.91545C18.0302 6.67007 17.8842 6.45112 17.6947 6.27753C17.4802 6.08103 17.1891 5.96756 16.6068 5.74064L12.4365 4.11533C12.2748 4.05231 12.194 4.0208 12.1108 4.00831C12.037 3.99723 11.9621 3.99723 11.8883 4.00831C11.8052 4.0208 11.7243 4.05231 11.5626 4.11533L7.39233 5.74064C6.81008 5.96756 6.51895 6.08103 6.30441 6.27753C6.11489 6.45112 5.96889 6.67007 5.87905 6.91545C5.77734 7.19322 5.77734 7.51636 5.77734 8.16264V12.0284C5.77734 15.9961 9.94154 18.8819 11.4567 19.8006Z" stroke="#DDE3EB" stroke-width="2" stroke-linecap="round" stroke-linejoin="round"/>
<path d="M12 20V4L17.8333 6.4L18.2222 13.2L16.2778 16.8L12 20Z" fill="#DDE3EB"/>
</svg>
