<svg width="32" height="32" viewBox="0 0 32 32" fill="none" xmlns="http://www.w3.org/2000/svg">
<g clip-path="url(#clip0_34_632)">
<g clip-path="url(#clip1_34_632)">
<g clip-path="url(#clip2_34_632)">
<g clip-path="url(#clip3_34_632)">
<path d="M0.0361328 25.5849C0.0361328 28.3823 0.0361328 29.9407 1.04989 30.9545C2.06365 31.9682 3.62205 31.9682 6.41949 31.9682H25.5792C28.3766 31.9682 29.935 31.9682 30.9488 30.9545C31.9625 29.9407 31.9625 28.3823 31.9625 25.5849V6.41559C31.9625 3.61815 31.9625 2.05975 30.9488 1.04599C29.935 0.0322266 28.3773 0.0322266 25.5798 0.0322266H6.41949C3.62205 0.0322266 2.07325 0.0322266 1.04989 1.04599C0.0361328 2.06935 0.0361328 3.61815 0.0361328 6.41559V25.5849Z" fill="#FF001A"/>
<path fill-rule="evenodd" clip-rule="evenodd" d="M14.0606 12.2792L11.372 14.237C11.0117 14.4994 10.5246 14.4994 10.1643 14.237C8.99117 13.3832 6.72109 11.7224 5.78477 11.0376C5.51917 10.843 5.36621 10.5365 5.36621 10.2075V6.292C5.36621 5.44784 6.32429 4.96016 7.00653 5.45808L14.0606 10.6011C14.6309 11.0139 14.6309 11.8632 14.0606 12.2792Z" fill="white"/>
<path fill-rule="evenodd" clip-rule="evenodd" d="M17.7802 12.2791L20.4689 14.2368C20.8292 14.4992 21.3162 14.4992 21.6765 14.2368C22.8497 13.3831 25.1197 11.7223 26.0561 11.0375C26.3217 10.8429 26.4746 10.5363 26.4746 10.2074V6.28161C26.4746 5.43681 25.5153 4.94977 24.833 5.44833L17.7802 10.601C17.21 11.0138 17.21 11.8631 17.7802 12.2791Z" fill="white"/>
<path d="M16.7592 14.0845C16.5339 13.92 16.2664 13.8483 16.0001 13.8573C15.7339 13.8477 15.4664 13.92 15.2411 14.0845L5.86763 20.8973C5.55211 21.1264 5.36523 21.4874 5.36523 21.8778C5.36523 22.6848 5.36523 24.1485 5.36523 25.4208C5.36523 26.4179 6.49675 26.9914 7.30187 26.4038L15.2814 20.5818C15.7096 20.2694 16.29 20.2694 16.7182 20.5818L24.5377 26.2874C25.3428 26.8749 26.4744 26.2995 26.4744 25.303V21.7664C26.4744 21.3766 26.2875 21.0099 25.972 20.7808L16.7585 14.0851L16.7592 14.0845Z" fill="white"/>
</g>
</g>
</g>
</g>
<defs>
<clipPath id="clip0_34_632">
<rect width="32" height="32" rx="6" fill="white"/>
</clipPath>
<clipPath id="clip1_34_632">
<rect width="32" height="32" fill="white"/>
</clipPath>
<clipPath id="clip2_34_632">
<rect width="32" height="32" fill="white"/>
</clipPath>
<clipPath id="clip3_34_632">
<rect width="32" height="32" fill="white"/>
</clipPath>
</defs>
</svg>
