<svg width="20" height="20" viewBox="0 0 20 20" fill="none" xmlns="http://www.w3.org/2000/svg">
<path d="M12.9163 2.0835C15.0836 2.08353 16.8541 3.75467 17.0626 5.8571C17.0852 6.08596 16.8963 6.27291 16.6663 6.27295H15.833C15.6029 6.27295 15.4198 6.08492 15.3821 5.85791C15.1843 4.66565 14.1498 3.75019 12.9163 3.75016L7.08298 3.75016C5.70226 3.75016 4.58298 4.86945 4.58298 6.25016L4.58298 8.40511L5.36585 7.62223C5.52858 7.45958 5.79235 7.45954 5.95505 7.62223L6.54424 8.21143C6.70687 8.37413 6.70687 8.63792 6.54424 8.80062L4.33884 11.006C4.01343 11.3314 3.48588 11.3314 3.16045 11.006L0.955046 8.80062C0.792328 8.6379 0.792328 8.37414 0.955046 8.21143L1.54424 7.62223C1.70696 7.45958 1.97073 7.45954 2.13343 7.62223L2.91631 8.40511L2.91631 6.25016C2.91631 3.94898 4.78179 2.0835 7.08298 2.0835L12.9163 2.0835Z" fill="#97A1B0"/>
<path d="M15.6608 9.41103C15.9862 9.08562 16.5137 9.08567 16.8392 9.41103L19.104 11.675C19.2339 11.8051 19.2337 12.016 19.104 12.1462L18.3968 12.8534C18.2666 12.9836 18.0558 12.9835 17.9256 12.8534L17.0833 12.0111V13.7502C17.0832 16.0514 15.2178 17.9169 12.9166 17.9169H7.0833C4.88764 17.9168 3.09924 16.2014 2.92965 14.0603C2.91532 13.8769 3.0663 13.7274 3.25029 13.7274H4.25046C4.43427 13.7276 4.58103 13.8772 4.60527 14.0595C4.76804 15.2917 5.82156 16.2501 7.0833 16.2502H12.9166C14.2973 16.2502 15.4166 15.1309 15.4166 13.7502V12.0119L14.5752 12.8534C14.445 12.9836 14.2342 12.9835 14.104 12.8534L13.3968 12.1462C13.2667 12.016 13.2666 11.8052 13.3968 11.675L15.6608 9.41103Z" fill="#97A1B0"/>
</svg>
